<svg width="1200" height="800" viewBox="0 0 1200 800" fill="none" xmlns="http://www.w3.org/2000/svg">
<circle cx="605.5" cy="392.5" r="392.5" fill="url(#paint0_linear_855_27)"/>
<g style="mix-blend-mode:overlay">
<circle cx="606" cy="392" r="358.5" stroke="white" stroke-width="3"/>
</g>
<path d="M378.061 382.283C378.646 381.697 378.646 380.747 378.061 380.161L368.515 370.615C367.929 370.03 366.979 370.03 366.393 370.615C365.808 371.201 365.808 372.151 366.393 372.737L374.879 381.222L366.393 389.707C365.808 390.293 365.808 391.243 366.393 391.829C366.979 392.414 367.929 392.414 368.515 391.829L378.061 382.283ZM84 382.722H92.1389V379.722H84V382.722ZM108.417 382.722H124.694V379.722H108.417V382.722ZM140.972 382.722H157.25V379.722H140.972V382.722ZM173.528 382.722H189.806V379.722H173.528V382.722ZM206.083 382.722H222.361V379.722H206.083V382.722ZM238.639 382.722H254.917V379.722H238.639V382.722ZM271.194 382.722H287.472V379.722H271.194V382.722ZM303.75 382.722H320.028V379.722H303.75V382.722ZM336.306 382.722H352.583V379.722H336.306V382.722ZM368.861 382.722H377V379.722H368.861V382.722Z" fill="#A8CBFF"/>
<path d="M378.061 382.283C378.646 381.697 378.646 380.747 378.061 380.161L368.515 370.615C367.929 370.03 366.979 370.03 366.393 370.615C365.808 371.201 365.808 372.151 366.393 372.737L374.879 381.222L366.393 389.707C365.808 390.293 365.808 391.243 366.393 391.829C366.979 392.414 367.929 392.414 368.515 391.829L378.061 382.283ZM84 382.722H92.1389V379.722H84V382.722ZM108.417 382.722H124.694V379.722H108.417V382.722ZM140.972 382.722H157.25V379.722H140.972V382.722ZM173.528 382.722H189.806V379.722H173.528V382.722ZM206.083 382.722H222.361V379.722H206.083V382.722ZM238.639 382.722H254.917V379.722H238.639V382.722ZM271.194 382.722H287.472V379.722H271.194V382.722ZM303.75 382.722H320.028V379.722H303.75V382.722ZM336.306 382.722H352.583V379.722H336.306V382.722ZM368.861 382.722H377V379.722H368.861V382.722Z" fill="url(#paint1_linear_855_27)"/>
<path d="M453.061 338.283C453.646 337.697 453.646 336.747 453.061 336.161L443.515 326.615C442.929 326.03 441.979 326.03 441.393 326.615C440.808 327.201 440.808 328.151 441.393 328.737L449.879 337.222L441.393 345.707C440.808 346.293 440.808 347.243 441.393 347.829C441.979 348.414 442.929 348.414 443.515 347.829L453.061 338.283ZM123 338.722H452V335.722H123V338.722Z" fill="#A8CBFF"/>
<path d="M453.061 338.283C453.646 337.697 453.646 336.747 453.061 336.161L443.515 326.615C442.929 326.03 441.979 326.03 441.393 326.615C440.808 327.201 440.808 328.151 441.393 328.737L449.879 337.222L441.393 345.707C440.808 346.293 440.808 347.243 441.393 347.829C441.979 348.414 442.929 348.414 443.515 347.829L453.061 338.283ZM123 338.722H452V335.722H123V338.722Z" fill="url(#paint2_linear_855_27)"/>
<path d="M439.061 425.283C439.646 424.697 439.646 423.747 439.061 423.161L429.515 413.615C428.929 413.03 427.979 413.03 427.393 413.615C426.808 414.201 426.808 415.151 427.393 415.737L435.879 424.222L427.393 432.707C426.808 433.293 426.808 434.243 427.393 434.829C427.979 435.414 428.929 435.414 429.515 434.829L439.061 425.283ZM171 425.722H438V422.722H171V425.722Z" fill="url(#paint3_linear_855_27)"/>
<g opacity="0.5">
<path d="M573.076 504.522C582.045 498.021 574.223 474.112 574.223 462.352L621.327 475.832L591.682 528.896C589.502 532.797 585.322 535.222 580.779 535.222C572.583 535.222 566.632 527.595 568.792 519.861L573.076 504.522Z" fill="url(#paint4_linear_855_27)"/>
<path d="M587.509 475.89C587.509 495.656 571.434 511.68 551.606 511.68H545.272C521.696 511.68 501.212 494.729 498.455 472.986C504.134 474.87 514.131 454.505 520.445 454.505L587.509 475.89Z" fill="url(#paint5_linear_855_27)"/>
<path d="M663.777 475.805H516.476C500.588 475.805 486.205 469.386 475.801 459.012C468.15 451.382 468.135 439.03 475.793 431.407L480.418 428.159C472.755 435.789 459.047 429.624 459.001 418.835C459 418.751 459 418.666 459 418.582C459 382.009 473.787 348.875 497.734 324.782C502.53 319.957 510.335 319.892 515.157 324.692L516.827 326.354C511.36 320.912 512.258 311.848 518.689 307.576C539.944 293.456 565.481 285.222 592.951 285.222H601.747C608.515 285.222 614 290.684 614 297.421C614 290.683 619.487 285.222 626.253 285.222H653.62C674.009 285.222 693.526 290.36 710.68 299.609C717.851 303.475 719.193 313.175 713.428 318.917L716.475 315.883C721.068 311.31 728.445 311.104 733.298 315.401C747.5 327.975 758.682 344.034 765.777 362.451C777.962 394.616 754.086 428.985 719.557 428.985H707.91C707.041 428.985 706.355 429.714 706.411 430.578C706.471 431.497 706.502 432.425 706.502 433.359C706.502 456.831 687.365 475.854 663.777 475.805Z" fill="url(#paint6_linear_855_27)"/>
</g>
<path d="M988.534 355.848L988.53 354.348L988.529 354.348L988.534 355.848ZM1177.4 356.418C1177.98 355.831 1177.98 354.881 1177.4 354.297L1167.82 344.776C1167.24 344.191 1166.29 344.194 1165.7 344.781C1165.12 345.368 1165.12 346.318 1165.71 346.902L1174.22 355.366L1165.75 363.873C1165.17 364.46 1165.17 365.41 1165.76 365.994C1166.35 366.579 1167.3 366.576 1167.88 365.989L1177.4 356.418ZM783.558 357.958L791.587 357.934L791.578 354.934L783.549 354.958L783.558 357.958ZM799.616 357.91L815.673 357.862L815.664 354.862L799.607 354.91L799.616 357.91ZM823.702 357.838L839.76 357.79L839.751 354.791L823.693 354.838L823.702 357.838ZM847.789 357.767L863.847 357.719L863.838 354.719L847.78 354.767L847.789 357.767ZM871.876 357.695L887.934 357.647L887.925 354.647L871.867 354.695L871.876 357.695ZM895.963 357.623L912.021 357.575L912.012 354.575L895.954 354.623L895.963 357.623ZM920.05 357.552L928.079 357.528L928.07 354.528L920.041 354.552L920.05 357.552ZM928.079 357.528L934.796 357.508L934.787 354.508L928.07 354.528L928.079 357.528ZM941.514 357.488L954.95 357.448L954.941 354.448L941.505 354.488L941.514 357.488ZM961.667 357.428L975.103 357.388L975.094 354.388L961.658 354.428L961.667 357.428ZM981.821 357.368L988.538 357.348L988.529 354.348L981.812 354.368L981.821 357.368ZM988.538 357.348L996.363 357.327L996.355 354.327L988.53 354.348L988.538 357.348ZM1004.19 357.307L1019.84 357.266L1019.83 354.266L1004.18 354.307L1004.19 357.307ZM1027.66 357.246L1043.31 357.206L1043.31 354.206L1027.66 354.246L1027.66 357.246ZM1051.14 357.185L1066.79 357.145L1066.78 354.145L1051.13 354.185L1051.14 357.185ZM1074.61 357.124L1090.26 357.084L1090.26 354.084L1074.61 354.124L1074.61 357.124ZM1098.09 357.063L1113.74 357.023L1113.73 354.023L1098.08 354.063L1098.09 357.063ZM1121.57 357.002L1137.22 356.962L1137.21 353.962L1121.56 354.002L1121.57 357.002ZM1145.04 356.941L1160.69 356.901L1160.68 353.901L1145.03 353.941L1145.04 356.941ZM1168.52 356.88L1176.34 356.86L1176.33 353.86L1168.51 353.881L1168.52 356.88Z" fill="url(#paint7_linear_855_27)"/>
<ellipse cx="1096.02" cy="355.7" rx="8.18817" ry="8.18817" transform="rotate(-177.398 1096.02 355.7)" fill="#CE2F55"/>
<circle cx="1072.5" cy="355.7" r="8.18817" transform="rotate(-177.398 1072.5 355.7)" fill="#CE2F55"/>
<ellipse cx="1047.71" cy="355.7" rx="8.18817" ry="8.18817" transform="rotate(-177.398 1047.71 355.7)" fill="#CE2F55"/>
<path d="M936.447 275.292V273.792H935.984L935.602 274.052L936.447 275.292ZM858.162 328.671V330.171H858.625L859.007 329.91L858.162 328.671ZM1181.06 276.352C1181.65 275.767 1181.65 274.817 1181.06 274.231L1171.51 264.685C1170.93 264.099 1169.98 264.099 1169.39 264.685C1168.81 265.271 1168.81 266.221 1169.39 266.806L1177.88 275.292L1169.39 283.777C1168.81 284.363 1168.81 285.313 1169.39 285.898C1169.98 286.484 1170.93 286.484 1171.51 285.898L1181.06 276.352ZM935.602 274.052L857.317 327.431L859.007 329.91L937.292 276.531L935.602 274.052ZM858.162 327.171H761.146V330.171H858.162V327.171ZM936.447 276.792H1180V273.792H936.447V276.792Z" fill="url(#paint8_linear_855_27)"/>
<path d="M1086.84 265.441L1076.98 276.13L1087.67 285.991L1097.53 275.302L1086.84 265.441Z" fill="#CE2F55"/>
<path d="M1059.17 269.102L1052.28 276.577L1059.75 283.472L1066.65 275.997L1059.17 269.102Z" fill="#CE2F55"/>
<path d="M1034.69 269.032L1027.8 276.507L1035.27 283.402L1042.17 275.927L1034.69 269.032Z" fill="#CE2F55"/>
<path d="M777.673 419.004V417.504H778.094L778.454 417.723L777.673 419.004ZM861.925 470.33V471.83H861.504L861.144 471.611L861.925 470.33ZM1134.87 469.27C1135.45 469.855 1135.45 470.805 1134.87 471.391L1125.32 480.937C1124.74 481.523 1123.79 481.523 1123.2 480.937C1122.62 480.351 1122.62 479.401 1123.2 478.816L1131.69 470.33L1123.2 461.845C1122.62 461.259 1122.62 460.31 1123.2 459.724C1123.79 459.138 1124.74 459.138 1125.32 459.724L1134.87 469.27ZM718.883 417.504H777.673V420.504H718.883V417.504ZM778.454 417.723L862.705 469.049L861.144 471.611L776.893 420.285L778.454 417.723ZM861.925 468.83H1133.81V471.83H861.925V468.83Z" fill="url(#paint9_linear_855_27)"/>
<rect x="-2.12132" width="7.86515" height="7.86515" transform="matrix(-0.707107 -0.707107 -0.707107 0.707107 1088.36 468.921)" fill="#CE2F55" stroke="#CE2F55" stroke-width="3"/>
<path d="M1032.92 469.297L1022.73 475.699V462.895L1032.92 469.297Z" fill="#CE2F55" stroke="#CE2F55" stroke-width="3"/>
<circle cx="8.55152" cy="8.55152" r="8.55152" transform="matrix(-1 0 0 1 1065.67 461.092)" fill="#CE2F55"/>
<path d="M587.267 483.826C596.208 477.31 588.411 453.343 588.411 441.555L635.369 455.067L605.815 508.258C603.643 512.168 599.475 514.6 594.946 514.6C586.776 514.6 580.843 506.954 582.997 499.201L587.267 483.826Z" fill="#E0EDFF" stroke="#F02E5C" stroke-width="3"/>
<path d="M601.655 455.125C601.655 474.939 585.63 491.001 565.863 491.001H559.55C536.047 491.001 515.626 474.01 512.877 452.215C518.539 454.102 528.505 433.689 534.799 433.689L601.655 455.125Z" fill="#A8CBFF" stroke="#F02E5C" stroke-width="3"/>
<path d="M677.686 455.04H582.489H530.843C515.004 455.04 500.666 448.606 490.295 438.206C482.668 430.558 482.653 418.177 490.286 410.536L494.897 407.28C487.258 414.928 473.592 408.749 473.546 397.933C473.546 397.849 473.546 397.764 473.546 397.68C473.546 361.019 488.287 327.806 512.159 303.655C516.94 298.819 524.722 298.753 529.528 303.564L531.193 305.231C525.743 299.775 526.639 290.69 533.049 286.407C554.238 272.253 579.696 264 607.08 264H615.849C622.596 264 628.064 269.475 628.064 276.228C628.064 269.474 633.533 264 640.279 264H667.56C687.886 264 707.342 269.151 724.443 278.422C731.592 282.297 732.929 292.02 727.182 297.776L730.22 294.734C734.799 290.151 742.152 289.944 746.991 294.252C761.148 306.856 772.296 322.953 779.369 341.414C791.515 373.656 767.714 408.108 733.293 408.108H721.682C720.815 408.108 720.132 408.839 720.188 409.705C720.247 410.626 720.278 411.556 720.278 412.493C720.278 436.021 701.201 455.089 677.686 455.04Z" fill="#A8CBFF" stroke="#F02E5C" stroke-width="3"/>
<path d="M627.586 374.129H679.195C701.538 374.129 719.65 392.241 719.65 414.584V414.584C719.65 436.927 701.538 455.04 679.195 455.04H572.437" stroke="#F02E5C" stroke-width="3"/>
<path d="M713.251 360.573C713.251 408.272 673.767 446.94 625.06 446.94C576.354 446.94 536.869 408.272 536.869 360.573C536.869 312.875 576.354 274.207 625.06 274.207C673.767 274.207 713.251 312.875 713.251 360.573Z" fill="#E0EDFF"/>
<path d="M728.438 358.467C728.438 360.08 727.797 361.626 726.657 362.766C725.517 363.906 723.971 364.547 722.359 364.547C720.746 364.547 719.2 363.906 718.059 362.766C716.919 361.626 716.279 360.08 716.279 358.467C716.279 356.855 716.919 355.309 718.059 354.168C719.2 353.028 720.746 352.388 722.359 352.388C723.971 352.388 725.517 353.028 726.657 354.168C727.797 355.309 728.438 356.855 728.438 358.467Z" fill="#6691FF" stroke="#F02E5C" stroke-width="3"/>
<path d="M572.437 268.495L593.167 296.59H652.224" stroke="#F02E5C" stroke-width="3" stroke-miterlimit="10"/>
<path d="M655.052 295.987C655.052 297.6 654.412 299.146 653.272 300.286C652.131 301.426 650.585 302.067 648.973 302.067C647.361 302.064 645.816 301.423 644.676 300.284C643.537 299.144 642.896 297.599 642.894 295.987C642.894 294.375 643.534 292.828 644.674 291.688C645.814 290.548 647.361 289.908 648.973 289.908C650.585 289.908 652.131 290.548 653.272 291.688C654.412 292.828 655.052 294.375 655.052 295.987Z" fill="#6691FF" stroke="#F02E5C" stroke-width="3"/>
<path d="M729.238 295.638L691.055 333.82H522.991" stroke="#F02E5C" stroke-width="3" stroke-miterlimit="10"/>
<path d="M721.899 277.052L684.835 314.117H598.285" stroke="#F02E5C" stroke-width="3" stroke-miterlimit="10"/>
<path d="M526.159 333.821C526.159 335.434 525.519 336.98 524.379 338.12C523.238 339.26 521.692 339.901 520.08 339.901C518.467 339.901 516.921 339.26 515.781 338.12C514.641 336.98 514 335.434 514 333.821C514 332.209 514.641 330.663 515.781 329.523C516.921 328.382 518.467 327.742 520.08 327.742C521.692 327.742 523.238 328.382 524.379 329.523C525.519 330.663 526.159 332.209 526.159 333.821Z" fill="#6691FF" stroke="#F02E5C" stroke-width="3"/>
<path d="M603.699 312.393C603.699 314.005 603.059 315.552 601.919 316.692C600.778 317.832 599.232 318.472 597.62 318.472C596.008 318.472 594.461 317.832 593.321 316.692C592.181 315.552 591.541 314.005 591.541 312.393C591.541 310.78 592.181 309.234 593.321 308.094C594.461 306.954 596.008 306.313 597.62 306.313C599.232 306.313 600.778 306.954 601.919 308.094C603.059 309.234 603.699 310.78 603.699 312.393Z" fill="#6691FF" stroke="#F02E5C" stroke-width="3"/>
<path d="M719.088 420.902L686.535 388.349H649.976" stroke="#F02E5C" stroke-width="3"/>
<path d="M715.716 357.094H631.672L533.165 455.602" stroke="#F02E5C" stroke-width="3"/>
<path d="M678.071 388.349H626.534L559.514 455.368" stroke="#F02E5C" stroke-width="3"/>
<path d="M648.853 413.071H626.764L584.798 454.651" stroke="#F02E5C" stroke-width="3"/>
<path d="M569.618 353.512C568.006 353.512 566.459 354.153 565.319 355.293C564.179 356.433 563.539 357.979 563.539 359.592C563.539 361.204 564.179 362.75 565.319 363.89C566.459 365.03 568.006 365.671 569.618 365.671C571.23 365.671 572.777 365.03 573.917 363.89C575.057 362.75 575.698 361.204 575.698 359.592C575.698 357.979 575.057 356.433 573.917 355.293C572.777 354.153 571.23 353.512 569.618 353.512Z" fill="#6691FF" stroke="#F02E5C" stroke-width="3"/>
<path d="M728.438 329.25C728.438 330.862 727.797 332.408 726.657 333.548C725.517 334.689 723.971 335.329 722.358 335.329C720.746 335.327 719.201 334.686 718.062 333.546C716.922 332.406 716.281 330.861 716.279 329.25C716.279 327.637 716.919 326.091 718.059 324.951C719.199 323.811 720.746 323.17 722.358 323.17C723.971 323.17 725.517 323.811 726.657 324.951C727.797 326.091 728.438 327.637 728.438 329.25Z" fill="#6691FF" stroke="#F02E5C" stroke-width="3"/>
<path d="M757.656 356.61C757.656 358.222 757.015 359.768 755.875 360.909C754.735 362.049 753.189 362.689 751.576 362.689C749.965 362.687 748.419 362.046 747.28 360.906C746.14 359.766 745.499 358.221 745.497 356.61C745.497 354.997 746.137 353.451 747.277 352.311C748.417 351.171 749.964 350.53 751.576 350.53C753.189 350.53 754.735 351.171 755.875 352.311C757.015 353.451 757.656 354.997 757.656 356.61Z" fill="#6691FF" stroke="#F02E5C" stroke-width="3"/>
<path d="M709.537 387.615L697.175 375.253" stroke="#F02E5C" stroke-width="3" stroke-linecap="round"/>
<path d="M705.961 376.838C705.961 378.45 705.321 379.996 704.181 381.136C703.041 382.276 701.494 382.917 699.882 382.917C698.27 382.917 696.724 382.276 695.583 381.136C694.443 379.996 693.803 378.45 693.803 376.838C693.803 375.225 694.443 373.679 695.583 372.539C696.724 371.399 698.27 370.758 699.882 370.758C701.494 370.758 703.041 371.399 704.181 372.539C705.321 373.679 705.961 375.225 705.961 376.838Z" fill="#6691FF" stroke="#F02E5C" stroke-width="3" stroke-linecap="round"/>
<path d="M573.358 312.393C573.358 314.005 572.718 315.552 571.578 316.692C570.438 317.832 568.891 318.473 567.279 318.473C565.667 318.473 564.12 317.832 562.98 316.692C561.84 315.552 561.2 314.005 561.2 312.393C561.2 310.781 561.84 309.235 562.98 308.094C564.12 306.954 565.667 306.314 567.279 306.314C568.891 306.314 570.438 306.954 571.578 308.094C572.718 309.235 573.358 310.781 573.358 312.393Z" fill="#6691FF" stroke="#F02E5C" stroke-width="3"/>
<path d="M502.763 313.446L563.446 313.446" stroke="#F02E5C" stroke-width="3"/>
<path d="M479.164 359.52L563.447 359.52" stroke="#F02E5C" stroke-width="3"/>
<path d="M473.545 383.119L551.085 383.119" stroke="#F02E5C" stroke-width="3"/>
<path d="M728.079 328.789L773.029 328.789" stroke="#F02E5C" stroke-width="3"/>
<path d="M757.857 356.149H783.704" stroke="#F02E5C" stroke-width="3"/>
<path d="M503.325 407.453L531.981 407.453" stroke="#F02E5C" stroke-width="3"/>
<path d="M494.333 407.453H554.455L599.406 362.502" stroke="#F02E5C" stroke-width="3" stroke-linecap="round"/>
<path d="M548.174 375.987C546.562 375.987 545.016 376.628 543.875 377.768C542.735 378.908 542.095 380.454 542.095 382.067C542.095 383.679 542.735 385.225 543.875 386.365C545.016 387.505 546.562 388.146 548.174 388.146C549.786 388.146 551.333 387.505 552.473 386.365C553.613 385.225 554.254 383.679 554.254 382.067C554.254 380.454 553.613 378.908 552.473 377.768C551.333 376.628 549.786 375.987 548.174 375.987Z" fill="#6691FF" stroke="#F02E5C" stroke-width="3"/>
<path d="M529.07 400.71C527.458 400.71 525.912 401.351 524.771 402.491C523.631 403.631 522.991 405.177 522.991 406.79C522.991 408.402 523.631 409.948 524.771 411.088C525.912 412.228 527.458 412.869 529.07 412.869C530.682 412.869 532.229 412.228 533.369 411.088C534.509 409.948 535.15 408.402 535.15 406.79C535.15 405.177 534.509 403.631 533.369 402.491C532.229 401.351 530.682 400.71 529.07 400.71Z" fill="#6691FF" stroke="#F02E5C" stroke-width="3"/>
<path d="M656.516 388.809C656.516 390.422 655.875 391.968 654.735 393.108C653.595 394.248 652.049 394.889 650.436 394.889C648.824 394.889 647.278 394.248 646.138 393.108C644.998 391.968 644.357 390.422 644.357 388.809C644.357 387.197 644.998 385.651 646.138 384.511C647.278 383.371 648.824 382.73 650.436 382.73C652.049 382.73 653.595 383.371 654.735 384.511C655.875 385.651 656.516 387.197 656.516 388.809Z" fill="#6691FF" stroke="#F02E5C" stroke-width="3"/>
<path d="M656.516 413.532C656.516 415.145 655.875 416.691 654.735 417.831C653.595 418.971 652.049 419.612 650.436 419.612C648.824 419.612 647.278 418.971 646.138 417.831C644.998 416.691 644.357 415.145 644.357 413.532C644.357 411.92 644.998 410.374 646.138 409.233C647.278 408.093 648.824 407.453 650.436 407.453C652.049 407.453 653.595 408.093 654.735 409.233C655.875 410.374 656.516 411.92 656.516 413.532Z" fill="#6691FF" stroke="#F02E5C" stroke-width="3"/>
<path d="M728.438 358.467C728.438 360.08 727.797 361.626 726.657 362.766C725.517 363.906 723.971 364.547 722.359 364.547C720.746 364.547 719.2 363.906 718.059 362.766C716.919 361.626 716.279 360.08 716.279 358.467C716.279 356.855 716.919 355.309 718.059 354.169C719.2 353.028 720.746 352.388 722.359 352.388C723.971 352.388 725.517 353.028 726.657 354.169C727.797 355.309 728.438 356.855 728.438 358.467Z" fill="#6691FF" stroke="#F02E5C" stroke-width="3"/>
<path d="M600.991 353.512C599.378 353.512 597.832 354.152 596.692 355.293C595.552 356.433 594.911 357.979 594.911 359.591C594.911 361.204 595.552 362.75 596.692 363.89C597.832 365.03 599.378 365.671 600.991 365.671C602.603 365.671 604.149 365.03 605.29 363.89C606.43 362.75 607.07 361.204 607.07 359.591C607.07 357.979 606.43 356.433 605.29 355.293C604.149 354.152 602.603 353.512 600.991 353.512Z" fill="#6691FF" stroke="#F02E5C" stroke-width="3"/>
<defs>
<linearGradient id="paint0_linear_855_27" x1="293.707" y1="668.704" x2="923.733" y2="116.151" gradientUnits="userSpaceOnUse">
<stop offset="0.0452287" stop-color="#CE2F55"/>
<stop offset="0.558816" stop-color="#FF6633"/>
<stop offset="0.699124" stop-color="#F6821F"/>
<stop offset="0.98386" stop-color="#FCB42F"/>
</linearGradient>
<linearGradient id="paint1_linear_855_27" x1="19.8305" y1="381.222" x2="376.831" y2="381.223" gradientUnits="userSpaceOnUse">
<stop stop-color="#004DC8"/>
<stop offset="0.375" stop-color="#A8CBFF"/>
</linearGradient>
<linearGradient id="paint2_linear_855_27" x1="98.8324" y1="337.222" x2="451.832" y2="337.223" gradientUnits="userSpaceOnUse">
<stop stop-color="#004DC8"/>
<stop offset="0.375" stop-color="#A8CBFF"/>
</linearGradient>
<linearGradient id="paint3_linear_855_27" x1="66.8239" y1="424.222" x2="437.824" y2="424.223" gradientUnits="userSpaceOnUse">
<stop stop-color="#004DC8"/>
<stop offset="0.375" stop-color="#A8CBFF"/>
</linearGradient>
<linearGradient id="paint4_linear_855_27" x1="488.347" y1="535.093" x2="732.395" y2="320.032" gradientUnits="userSpaceOnUse">
<stop stop-color="#911475"/>
<stop offset="0.42384" stop-color="#CE2F55"/>
<stop offset="0.805079" stop-color="#FF6533"/>
</linearGradient>
<linearGradient id="paint5_linear_855_27" x1="488.347" y1="535.093" x2="732.395" y2="320.032" gradientUnits="userSpaceOnUse">
<stop stop-color="#911475"/>
<stop offset="0.42384" stop-color="#CE2F55"/>
<stop offset="0.805079" stop-color="#FF6533"/>
</linearGradient>
<linearGradient id="paint6_linear_855_27" x1="488.347" y1="535.093" x2="732.395" y2="320.032" gradientUnits="userSpaceOnUse">
<stop stop-color="#911475"/>
<stop offset="0.42384" stop-color="#CE2F55"/>
<stop offset="0.805079" stop-color="#FF6533"/>
</linearGradient>
<linearGradient id="paint7_linear_855_27" x1="1229.77" y1="356.13" x2="783.556" y2="357.46" gradientUnits="userSpaceOnUse">
<stop stop-color="#911475"/>
<stop offset="0.770833" stop-color="#F02E5C"/>
</linearGradient>
<linearGradient id="paint8_linear_855_27" x1="1316.34" y1="328.671" x2="761.146" y2="328.671" gradientUnits="userSpaceOnUse">
<stop stop-color="#911475"/>
<stop offset="0.770833" stop-color="#F02E5C"/>
</linearGradient>
<linearGradient id="paint9_linear_855_27" x1="1230.6" y1="419.004" x2="718.883" y2="419.004" gradientUnits="userSpaceOnUse">
<stop stop-color="#911475"/>
<stop offset="0.770833" stop-color="#F02E5C"/>
</linearGradient>
</defs>
</svg>
